<?xml version="1.0" encoding="UTF-8"?>
<svg id="Layer_2" data-name="Layer 2" xmlns="http://www.w3.org/2000/svg" viewBox="0 0 678.18 90.74">
  <defs>
    <style>
      .cls-1 {
        fill: #001e23;
      }

      .cls-2 {
        fill: #009e9e;
      }
    </style>
  </defs>
  <g id="Layer_1-2" data-name="Layer 1">
    <g>
      <g>
        <path class="cls-1" d="M246.09,4.27h37.74c5.54,0,10.6,1.34,15.21,4.03,4.6,2.69,8.26,6.31,10.99,10.87,2.73,4.56,4.09,9.45,4.09,14.66,0,3.66-.71,7.19-2.14,10.56-1.43,3.38-3.44,6.37-6.05,8.98-2.61,2.61-5.58,4.6-8.91,5.98l18.32,30.41h-19.54l-16.98-28.09h-14.41v28.09h-18.32V4.27ZM264.41,45.8h19.42c3.5,0,6.47-1.22,8.92-3.66,2.44-2.44,3.66-5.41,3.66-8.91s-1.22-6.45-3.66-8.85c-2.44-2.4-5.42-3.6-8.92-3.6h-19.42v25.04Z"/>
        <path class="cls-1" d="M386.2,4.27v16.98h-43.6v17.46h38.71v16.61h-38.71v17.46h43.6v16.98h-51.9l-10.01-17.1V4.27h61.92Z"/>
        <path class="cls-1" d="M422.26,47.14c0-7.9,1.97-15.18,5.92-21.86,3.95-6.67,9.26-11.99,15.94-15.94,6.67-3.95,13.96-5.92,21.86-5.92s15.18,1.97,21.86,5.92c6.67,3.95,11.99,9.26,15.94,15.94,3.95,6.68,5.92,13.96,5.92,21.86s-1.95,15.19-5.86,21.86c-3.91,6.68-9.22,11.97-15.94,15.88-6.72,3.91-14.02,5.86-21.92,5.86s-15.19-1.95-21.86-5.86c-6.68-3.91-11.99-9.2-15.94-15.88-3.95-6.67-5.92-13.96-5.92-21.86ZM440.58,47.14c0,4.8,1.1,9.24,3.3,13.31,2.2,4.07,5.23,7.29,9.1,9.65,3.87,2.36,8.2,3.54,13.01,3.54s9.14-1.18,13.01-3.54c3.87-2.36,6.9-5.58,9.1-9.65,2.2-4.07,3.3-8.51,3.3-13.31s-1.1-9.24-3.3-13.31c-2.2-4.07-5.23-7.31-9.1-9.71-3.87-2.4-8.2-3.6-13.01-3.6s-9.04,1.2-12.95,3.6c-3.91,2.4-6.96,5.64-9.16,9.71-2.2,4.07-3.3,8.51-3.3,13.31Z"/>
        <path class="cls-1" d="M519.54,4.27h37.74c5.54,0,10.6,1.34,15.21,4.03,4.6,2.69,8.26,6.31,10.99,10.87,2.73,4.56,4.09,9.45,4.09,14.66,0,3.66-.71,7.19-2.14,10.56-1.43,3.38-3.44,6.37-6.05,8.98-2.61,2.61-5.58,4.6-8.91,5.98l18.32,30.41h-19.54l-16.98-28.09h-14.41v28.09h-18.32V4.27ZM537.86,45.8h19.42c3.5,0,6.47-1.22,8.92-3.66,2.44-2.44,3.66-5.41,3.66-8.91s-1.22-6.45-3.66-8.85c-2.44-2.4-5.42-3.6-8.92-3.6h-19.42v25.04Z"/>
        <path class="cls-1" d="M593.06,47.14c0-7.9,1.97-15.18,5.92-21.86,3.95-6.67,9.26-11.99,15.94-15.94,6.67-3.95,13.96-5.92,21.86-5.92,8.71,0,16.51,2.28,23.39,6.84,6.88,4.56,12.07,10.71,15.57,18.44l-17.46,5.01c-2.04-4.07-4.97-7.22-8.79-9.46-3.83-2.24-8.06-3.36-12.7-3.36s-9.14,1.16-13.01,3.48c-3.87,2.32-6.9,5.5-9.1,9.53-2.2,4.03-3.3,8.45-3.3,13.25s1.1,9.2,3.3,13.19c2.2,3.99,5.23,7.14,9.1,9.46,3.87,2.32,8.2,3.48,13.01,3.48,3.42,0,6.67-.59,9.77-1.77,3.09-1.18,5.84-2.99,8.24-5.43,2.4-2.44,4.25-5.41,5.56-8.92l-23.08.12-.24-15.51h41.16v6.96c0,8.06-1.81,15.29-5.43,21.68-3.62,6.39-8.59,11.38-14.9,14.96-6.31,3.58-13.33,5.37-21.07,5.37s-15.19-1.95-21.86-5.86c-6.68-3.91-11.99-9.2-15.94-15.88-3.95-6.67-5.92-13.96-5.92-21.86Z"/>
        <rect class="cls-2" x="397.8" y="73.75" width="15.06" height="15.06"/>
        <rect class="cls-2" x="397.8" y="39.42" width="15.06" height="15.06"/>
      </g>
      <g>
        <polygon class="cls-1" points="27.26 88.61 46.83 88.61 46.83 21.3 74.14 21.3 74.14 3.65 0 3.65 0 21.3 27.26 21.3 27.26 88.61"/>
        <path class="cls-1" d="M118.91,25.34h-.38v-.12c-7.25.09-13.25,2.8-17.81,8.06l-.66.76V0h-18.85v88.61h18.85v-30.11c0-4.88,1.11-8.78,3.31-11.59,2.22-2.83,5.3-4.27,9.14-4.27,7.67,0,11.55,4.69,11.55,13.94v32.08h18.79v-35.96c0-8.42-2.02-15.16-6.01-20.02-3.99-4.87-10.02-7.33-17.94-7.33Z"/>
        <path class="cls-1" d="M205.82,34.31c-5.76-5.99-13.69-9.03-23.58-9.03s-17.65,3.1-23.64,9.21c-6,6.11-9.04,13.99-9.04,23.41s3.16,17.46,9.39,23.46c6.2,5.97,14.41,9.01,24.39,9.04l.06-.06h.16c7.46,0,13.93-1.79,19.22-5.32,5.1-3.4,8.69-7.29,10.68-11.58l-16.93-4.94c-2.41,4.16-6.67,6.27-12.67,6.27-9.07,0-14.44-3.72-15.97-11.06l-.09-.45h46.28c.28-1.86.42-3.91.42-6.08,0-9.18-2.92-16.88-8.68-22.87ZM167.87,52.3l.07-.44c.5-2.99,2.01-5.58,4.49-7.7,2.53-2.16,5.79-3.26,9.69-3.26s7.2,1.08,9.75,3.2c2.55,2.13,4.01,4.75,4.32,7.78l.04.41h-28.36Z"/>
      </g>
    </g>
  </g>
</svg>